<?xml version="1.0" encoding="UTF-8"?>
<svg width="14px" height="16px" viewBox="0 0 14 16" version="1.1" xmlns="http://www.w3.org/2000/svg" xmlns:xlink="http://www.w3.org/1999/xlink">
    <!-- Generator: Sketch 63.1 (92452) - https://sketch.com -->
    <title>Shape</title>
    <desc>Created with Sketch.</desc>
    <g id="IPI-Central" stroke="none" strokeWidth="1" fill="none" fillRule="evenodd">
        <g id="Log_In" transform="translate(-1243.000000, -528.000000)" fill="#7C57C1">
            <g id="Group-22">
                <g id="Group-5" transform="translate(820.000000, 230.000000)">
                    <g id="Group-10" transform="translate(58.000000, 76.000000)">
                        <g id="Group-11" transform="translate(0.000000, 123.000000)">
                            <g id="Input---2" transform="translate(23.000000, 87.000000)">
                                <g id="Group-3" transform="translate(0.800001, 0.000000)">
                                    <path d="M352.723512,18.510403 L352.284614,18.510403 L352.282531,16.321603 C352.280447,13.937603 350.340842,11.9980474 347.957553,12.0000015 C345.573553,12.0020863 343.633997,13.9416918 343.635419,16.3249807 L343.638892,18.5132474 L343.482641,18.5139418 C342.663192,18.5160252 341.997912,19.1806085 342.000005,20.0000574 L342.000005,26.5152574 C342.000005,27.3347062 342.666677,27.9999862 343.486125,27.9999862 L352.727014,27.9944307 C353.546463,27.9944307 354.211743,27.329844 354.20965,26.5097018 L354.20965,19.9930796 C354.20965,19.1736307 353.542979,18.5104485 352.72353,18.5104485 L352.723512,18.510403 Z M345.231778,18.5138751 L345.228306,16.3256085 C345.228306,14.820044 346.451222,13.5951196 347.95755,13.5929862 C349.463115,13.5929862 350.688039,14.8179818 350.688039,16.3222307 L350.691512,18.5104974 L345.231778,18.5138751 Z" id="Shape"></path>
                                </g>
                            </g>
                        </g>
                    </g>
                </g>
            </g>
        </g>
    </g>
</svg>