<?xml version="1.0" encoding="UTF-8"?>
<svg width="15px" height="18px" viewBox="0 0 15 18" version="1.1" xmlns="http://www.w3.org/2000/svg" xmlns:xlink="http://www.w3.org/1999/xlink">
    <!-- Generator: Sketch 63.1 (92452) - https://sketch.com -->
    <title>single-02</title>
    <desc>Created with Sketch.</desc>
    <g id="IPI-Central" stroke="none" strokeWidth="1" fill="none" fillRule="evenodd">
        <g id="Log_In" transform="translate(-1242.000000, -453.000000)" fill="#7C57C1">
            <g id="Group-22">
                <g id="Group-5" transform="translate(820.000000, 230.000000)">
                    <g id="Group-10" transform="translate(58.000000, 76.000000)">
                        <g id="Group-11" transform="translate(0.000000, 123.000000)">
                            <g id="Input---1" transform="translate(23.199999, 16.000000)">
                                <g id="single-02" transform="translate(340.800001, 8.920001)">
                                    <path d="M9.47654395,9.87219195 C8.74649595,10.3009279 7.92563196,10.5599999 7.03999996,10.5599999 C6.15436797,10.5599999 5.33350397,10.3009279 4.60345598,9.87219195 C2.03737599,10.0404479 0,12.1763839 0,14.7839999 L0,16.0019199 L0.489279997,16.1589119 C0.583615997,16.1884799 2.84275198,16.8959999 7.03999996,16.8959999 C11.2372479,16.8959999 13.4963839,16.1884799 13.5907199,16.1589119 L14.0799999,16.0019199 L14.0799999,14.7839999 C14.0799999,12.1763839 12.0426239,10.0404479 9.47654395,9.87219195 Z" id="Path"></path>
                                    <path d="M7.03999996,9.15199995 C9.41881595,9.15199995 11.2639999,6.50284796 11.2639999,4.22399998 C11.2639999,1.89446399 9.36953595,0 7.03999996,0 C4.71046397,0 2.81599998,1.89446399 2.81599998,4.22399998 C2.81599998,6.50284796 4.66118397,9.15199995 7.03999996,9.15199995 Z" id="Path"></path>
                                </g>
                            </g>
                        </g>
                    </g>
                </g>
            </g>
        </g>
    </g>
</svg>